<svg width="41" height="40" viewBox="0 0 41 40" fill="none" xmlns="http://www.w3.org/2000/svg">
<path d="M35.6673 16.6666H32.334V6.66659H34.0007V3.33325H7.334V6.66659H9.00067V16.6666H5.66734C5.22531 16.6666 4.80139 16.8422 4.48883 17.1547C4.17627 17.4673 4.00067 17.8912 4.00067 18.3333V33.3333H37.334V18.3333C37.334 17.8912 37.1584 17.4673 36.8458 17.1547C36.5333 16.8422 36.1094 16.6666 35.6673 16.6666ZM24.0007 29.9999V23.3333H17.334V29.9999H12.334V6.66659H29.0007V29.9999H24.0007Z" fill="#F5AE2E"/>
<path d="M15.6674 10H19.0007V13.3333H15.6674V10ZM22.334 10H25.6674V13.3333H22.334V10ZM15.6674 16.6667H19.0007V20H15.6674V16.6667ZM22.334 16.6667H25.6674V20H22.334V16.6667Z" fill="#F5AE2E"/>
</svg>
