<svg width="40" height="40" viewBox="0 0 40 40" fill="none" xmlns="http://www.w3.org/2000/svg">
<path d="M5.46666 3.69999C5.2297 3.47919 4.91629 3.35898 4.59246 3.3647C4.26862 3.37041 3.95965 3.5016 3.73063 3.73062C3.5016 3.95964 3.37042 4.26862 3.3647 4.59245C3.35899 4.91629 3.47919 5.2297 3.69999 5.46666L6.59666 8.36666C5.69437 8.48475 4.8658 8.92691 4.2654 9.61072C3.66499 10.2945 3.33372 11.1733 3.33333 12.0833V24.5833C3.33333 25.5779 3.72842 26.5317 4.43168 27.235C5.13494 27.9382 6.08877 28.3333 7.08333 28.3333H26.5667L29.0567 30.825C28.9567 30.8305 28.8544 30.8333 28.75 30.8333H7.33499C7.77397 31.5936 8.4054 32.225 9.16579 32.6638C9.92618 33.1027 10.7887 33.3336 11.6667 33.3333H28.75C29.6 33.3333 30.4167 33.2 31.1833 32.9517L34.5333 36.3017C34.6487 36.421 34.7867 36.5162 34.9392 36.5816C35.0917 36.647 35.2558 36.6814 35.4218 36.6828C35.5877 36.6842 35.7523 36.6525 35.9059 36.5895C36.0595 36.5266 36.199 36.4337 36.3163 36.3163C36.4336 36.1989 36.5264 36.0593 36.5892 35.9056C36.6519 35.752 36.6835 35.5874 36.682 35.4214C36.6805 35.2554 36.6459 35.0914 36.5803 34.9389C36.5147 34.7865 36.4194 34.6486 36.3 34.5333L5.46666 3.69999ZM24.0667 25.8333H10.8333V24.5833C10.8333 23.5888 10.4382 22.6349 9.73498 21.9317C9.03172 21.2284 8.07789 20.8333 7.08333 20.8333H5.83333V15.8333H7.08333C7.9936 15.8333 8.87281 15.5022 9.55697 14.9018C10.2411 14.3014 10.6835 13.4726 10.8017 12.57L13.5283 15.2967C12.7908 16.2591 12.4281 17.4567 12.5078 18.6666C12.5875 19.8765 13.1041 21.0162 13.9614 21.8735C14.8188 22.7309 15.9585 23.2475 17.1684 23.3272C18.3783 23.4069 19.5759 23.0442 20.5383 22.3067L24.0667 25.8333ZM15.3283 17.095L18.7383 20.5067C18.2623 20.778 17.7102 20.8855 17.1671 20.8125C16.624 20.7395 16.1199 20.49 15.7324 20.1025C15.345 19.7151 15.0955 19.211 15.0225 18.6679C14.9495 18.1248 15.0569 17.5727 15.3283 17.0967M5.83333 12.0833C5.83333 11.7518 5.96502 11.4339 6.19944 11.1994C6.43387 10.965 6.75181 10.8333 7.08333 10.8333H8.33333V12.0833C8.33333 12.4148 8.20163 12.7328 7.96721 12.9672C7.73279 13.2016 7.41485 13.3333 7.08333 13.3333H5.83333V12.0833ZM7.08333 25.8333C6.75181 25.8333 6.43387 25.7016 6.19944 25.4672C5.96502 25.2328 5.83333 24.9148 5.83333 24.5833V23.3333H7.08333C7.41485 23.3333 7.73279 23.465 7.96721 23.6994C8.20163 23.9339 8.33333 24.2518 8.33333 24.5833V25.8333H7.08333ZM27.9167 20.8333C27.4082 20.8308 26.9047 20.9341 26.4383 21.1367L28.6333 23.3333H29.165V23.8667L31.3617 26.0617C31.5642 25.5952 31.6675 25.0918 31.665 24.5833V12.0833C31.665 11.089 31.2701 10.1355 30.5672 9.43226C29.8643 8.72905 28.9109 8.33376 27.9167 8.33332H13.6333L16.1333 10.8333H24.1667V12.0833C24.1667 12.5758 24.2637 13.0634 24.4521 13.5184C24.6406 13.9734 24.9168 14.3868 25.265 14.735C25.9683 15.4382 26.9221 15.8333 27.9167 15.8333H29.1667V20.8333H27.9167ZM29.1667 12.0833V13.3333H27.9167C27.5851 13.3333 27.2672 13.2016 27.0328 12.9672C26.7984 12.7328 26.6667 12.4148 26.6667 12.0833V10.8333H27.9167C28.2482 10.8333 28.5661 10.965 28.8005 11.1994C29.035 11.4339 29.1667 11.7518 29.1667 12.0833ZM33.4367 28.135L35.245 29.9433C36.1417 28.66 36.6667 27.1 36.6667 25.4167V16.6667C36.6669 15.7887 36.436 14.9262 35.9972 14.1658C35.5583 13.4054 34.927 12.774 34.1667 12.335V25.4167C34.1679 26.3714 33.916 27.3093 33.4367 28.135Z" fill="#F5AE2E"/>
</svg>
