<svg width="40" height="41" viewBox="0 0 40 41" fill="none" xmlns="http://www.w3.org/2000/svg">
<path d="M20 12.0001V8.66675C20 8.22472 20.1756 7.8008 20.4882 7.48824C20.8007 7.17568 21.2246 7.00008 21.6667 7.00008C22.1087 7.00008 22.5326 6.82449 22.8452 6.51193C23.1577 6.19937 23.3333 5.77544 23.3333 5.33341V3.66675M16.6667 27.0001L14.1667 24.5001M14.1667 24.5001L11.6667 22.0001M14.1667 24.5001L11.6667 27.0001M14.1667 24.5001L16.6667 22.0001M28.3333 26.1667V22.8334M3.33333 24.5001C3.33333 19.0217 3.33333 16.2817 4.84666 14.4367C5.12348 14.0995 5.43274 13.7902 5.76999 13.5134C7.61666 12.0001 10.3533 12.0001 15.8333 12.0001H24.1667C29.6467 12.0001 32.385 12.0001 34.23 13.5134C34.5672 13.7902 34.8765 14.0995 35.1533 14.4367C36.6667 16.2834 36.6667 19.0201 36.6667 24.5001C36.6667 29.9801 36.6667 32.7184 35.1533 34.5634C34.8765 34.9007 34.5672 35.2099 34.23 35.4867C32.3833 37.0001 29.6467 37.0001 24.1667 37.0001H15.8333C10.355 37.0001 7.61499 37.0001 5.76999 35.4867C5.43274 35.2099 5.12348 34.9007 4.84666 34.5634C3.33333 32.7167 3.33333 29.9801 3.33333 24.5001Z" stroke="#F5AE2E" stroke-width="3" stroke-linecap="round" stroke-linejoin="round"/>
</svg>
