<svg width="41" height="41" viewBox="0 0 41 41" fill="none" xmlns="http://www.w3.org/2000/svg">
<g clip-path="url(#clip0_2066_1020)">
<path d="M20.6667 7.33317C18.0297 7.33317 15.4518 8.11516 13.2591 9.58024C11.0665 11.0453 9.35752 13.1277 8.34836 15.5641C7.33919 18.0004 7.07514 20.6813 7.58961 23.2677C8.10408 25.8541 9.37396 28.2299 11.2387 30.0946C13.1034 31.9593 15.4791 33.2292 18.0655 33.7436C20.652 34.2581 23.3328 33.9941 25.7692 32.9849C28.2055 31.9757 30.2879 30.2668 31.753 28.0741C33.2181 25.8814 34.0001 23.3036 34.0001 20.6665C33.9988 17.1307 32.5936 13.7401 30.0934 11.2399C27.5932 8.73968 24.2026 7.3345 20.6667 7.33317ZM10.6667 20.6665C10.6691 20.0541 10.7277 19.4432 10.8417 18.8415L16.6667 24.6665V25.9998C16.6689 26.7064 16.9506 27.3834 17.4502 27.883C17.9498 28.3826 18.6268 28.6643 19.3334 28.6665V30.5665C16.9362 30.2426 14.7375 29.0613 13.1442 27.2412C11.5508 25.4211 10.6707 23.0855 10.6667 20.6665ZM26.0001 25.9998H24.6667V21.9998C24.6667 21.8247 24.6323 21.6514 24.5653 21.4896C24.4982 21.3278 24.4 21.1808 24.2762 21.057C24.1524 20.9332 24.0054 20.835 23.8437 20.768C23.6819 20.701 23.5085 20.6665 23.3334 20.6665H15.3334V17.9998H18.0001C18.3537 17.9998 18.6928 17.8594 18.9429 17.6093C19.1929 17.3593 19.3334 17.0201 19.3334 16.6665V13.9998H22.0001C22.6765 13.9969 23.3265 13.7371 23.8185 13.2729C24.3106 12.8087 24.6078 12.1749 24.6501 11.4998C26.0909 12.1227 27.3644 13.0768 28.367 14.2845C29.3696 15.4923 30.073 16.9196 30.4201 18.4504C30.7672 19.9813 30.7481 21.5724 30.3643 23.0944C29.9806 24.6165 29.2431 26.0265 28.2117 27.2098C27.9748 26.8382 27.6479 26.5325 27.2612 26.3209C26.8746 26.1094 26.4408 25.999 26.0001 25.9998ZM22.3334 2.33317C22.3334 2.66281 22.2357 2.98504 22.0525 3.25912C21.8694 3.5332 21.6091 3.74682 21.3046 3.87297C21 3.99912 20.6649 4.03212 20.3416 3.96781C20.0183 3.9035 19.7213 3.74477 19.4882 3.51168C19.2551 3.27859 19.0964 2.98162 19.0321 2.65832C18.9678 2.33502 19.0008 1.99991 19.1269 1.69536C19.2531 1.39082 19.4667 1.13052 19.7408 0.947388C20.0149 0.764252 20.3371 0.666504 20.6667 0.666504C21.1088 0.666504 21.5327 0.842099 21.8453 1.15466C22.1578 1.46722 22.3334 1.89114 22.3334 2.33317ZM30.6667 3.99984C30.6667 4.32947 30.569 4.65171 30.3859 4.92579C30.2027 5.19987 29.9424 5.41349 29.6379 5.53964C29.3333 5.66578 28.9982 5.69879 28.6749 5.63448C28.3516 5.57017 28.0547 5.41144 27.8216 5.17835C27.5885 4.94526 27.4297 4.64829 27.3654 4.32499C27.3011 4.00169 27.3341 3.66657 27.4603 3.36203C27.5864 3.05749 27.8 2.79719 28.0741 2.61405C28.3482 2.43092 28.6704 2.33317 29.0001 2.33317C29.4421 2.33317 29.866 2.50877 30.1786 2.82133C30.4912 3.13389 30.6667 3.55781 30.6667 3.99984ZM37.3334 10.6665C37.3334 10.9961 37.2357 11.3184 37.0525 11.5925C36.8694 11.8665 36.6091 12.0802 36.3046 12.2063C36 12.3324 35.6649 12.3655 35.3416 12.3011C35.0183 12.2368 34.7213 12.0781 34.4882 11.845C34.2551 11.6119 34.0964 11.315 34.0321 10.9917C33.9678 10.6684 34.0008 10.3332 34.1269 10.0287C34.2531 9.72415 34.4667 9.46386 34.7408 9.28072C35.0149 9.09759 35.3371 8.99984 35.6667 8.99984C36.1088 8.99984 36.5327 9.17543 36.8453 9.48799C37.1578 9.80055 37.3334 10.2245 37.3334 10.6665ZM40.6667 20.6665C40.6667 20.9961 40.569 21.3184 40.3859 21.5925C40.2027 21.8665 39.9424 22.0802 39.6379 22.2063C39.3333 22.3324 38.9982 22.3655 38.6749 22.3011C38.3516 22.2368 38.0547 22.0781 37.8216 21.845C37.5885 21.6119 37.4297 21.315 37.3654 20.9917C37.3011 20.6684 37.3341 20.3332 37.4603 20.0287C37.5864 19.7242 37.8 19.4639 38.0741 19.2807C38.3482 19.0976 38.6704 18.9998 39.0001 18.9998C39.4421 18.9998 39.866 19.1754 40.1786 19.488C40.4912 19.8006 40.6667 20.2245 40.6667 20.6665ZM37.3334 30.6665C37.3334 30.9961 37.2357 31.3184 37.0525 31.5925C36.8694 31.8665 36.6091 32.0802 36.3046 32.2063C36 32.3324 35.6649 32.3655 35.3416 32.3011C35.0183 32.2368 34.7213 32.0781 34.4882 31.845C34.2551 31.6119 34.0964 31.315 34.0321 30.9917C33.9678 30.6684 34.0008 30.3332 34.1269 30.0287C34.2531 29.7242 34.4667 29.4639 34.7408 29.2807C35.0149 29.0976 35.3371 28.9998 35.6667 28.9998C36.1088 28.9998 36.5327 29.1754 36.8453 29.488C37.1578 29.8006 37.3334 30.2245 37.3334 30.6665ZM30.6667 37.3332C30.6667 37.6628 30.569 37.985 30.3859 38.2591C30.2027 38.5332 29.9424 38.7468 29.6379 38.873C29.3333 38.9991 28.9982 39.0321 28.6749 38.9678C28.3516 38.9035 28.0547 38.7448 27.8216 38.5117C27.5885 38.2786 27.4297 37.9816 27.3654 37.6583C27.3011 37.335 27.3341 36.9999 27.4603 36.6954C27.5864 36.3908 27.8 36.1305 28.0741 35.9474C28.3482 35.7643 28.6704 35.6665 29.0001 35.6665C29.4421 35.6665 29.866 35.8421 30.1786 36.1547C30.4912 36.4672 30.6667 36.8911 30.6667 37.3332ZM22.3334 38.9998C22.3334 39.3295 22.2357 39.6517 22.0525 39.9258C21.8694 40.1999 21.6091 40.4135 21.3046 40.5396C21 40.6658 20.6649 40.6988 20.3416 40.6345C20.0183 40.5702 19.7213 40.4114 19.4882 40.1783C19.2551 39.9453 19.0964 39.6483 19.0321 39.325C18.9678 39.0017 19.0008 38.6666 19.1269 38.362C19.2531 38.0575 19.4667 37.7972 19.7408 37.6141C20.0149 37.4309 20.3371 37.3332 20.6667 37.3332C21.1088 37.3332 21.5327 37.5088 21.8453 37.8213C22.1578 38.1339 22.3334 38.5578 22.3334 38.9998ZM14.0001 37.3332C14.0001 37.6628 13.9023 37.985 13.7192 38.2591C13.5361 38.5332 13.2758 38.7468 12.9712 38.873C12.6667 38.9991 12.3316 39.0321 12.0083 38.9678C11.685 38.9035 11.388 38.7448 11.1549 38.5117C10.9218 38.2786 10.7631 37.9816 10.6988 37.6583C10.6345 37.335 10.6675 36.9999 10.7936 36.6954C10.9198 36.3908 11.1334 36.1305 11.4075 35.9474C11.6815 35.7643 12.0038 35.6665 12.3334 35.6665C12.7754 35.6665 13.1994 35.8421 13.5119 36.1547C13.8245 36.4672 14.0001 36.8911 14.0001 37.3332ZM7.33342 30.6665C7.33342 30.9961 7.23567 31.3184 7.05253 31.5925C6.8694 31.8665 6.6091 32.0802 6.30455 32.2063C6.00001 32.3324 5.6649 32.3655 5.3416 32.3011C5.0183 32.2368 4.72132 32.0781 4.48824 31.845C4.25515 31.6119 4.09642 31.315 4.03211 30.9917C3.9678 30.6684 4.0008 30.3332 4.12695 30.0287C4.2531 29.7242 4.46672 29.4639 4.7408 29.2807C5.01488 29.0976 5.33711 28.9998 5.66675 28.9998C6.10878 28.9998 6.5327 29.1754 6.84526 29.488C7.15782 29.8006 7.33342 30.2245 7.33342 30.6665ZM4.00008 20.6665C4.00008 20.9961 3.90233 21.3184 3.7192 21.5925C3.53606 21.8665 3.27576 22.0802 2.97122 22.2063C2.66668 22.3324 2.33157 22.3655 2.00827 22.3011C1.68496 22.2368 1.38799 22.0781 1.1549 21.845C0.921817 21.6119 0.763082 21.315 0.698773 20.9917C0.634465 20.6684 0.66747 20.3332 0.793616 20.0287C0.919762 19.7242 1.13338 19.4639 1.40747 19.2807C1.68155 19.0976 2.00378 18.9998 2.33342 18.9998C2.77544 18.9998 3.19937 19.1754 3.51193 19.488C3.82449 19.8006 4.00008 20.2245 4.00008 20.6665ZM7.33342 10.6665C7.33342 10.9961 7.23567 11.3184 7.05253 11.5925C6.8694 11.8665 6.6091 12.0802 6.30455 12.2063C6.00001 12.3324 5.6649 12.3655 5.3416 12.3011C5.0183 12.2368 4.72132 12.0781 4.48824 11.845C4.25515 11.6119 4.09642 11.315 4.03211 10.9917C3.9678 10.6684 4.0008 10.3332 4.12695 10.0287C4.2531 9.72415 4.46672 9.46386 4.7408 9.28072C5.01488 9.09759 5.33711 8.99984 5.66675 8.99984C6.10878 8.99984 6.5327 9.17543 6.84526 9.48799C7.15782 9.80055 7.33342 10.2245 7.33342 10.6665ZM14.0001 3.99984C14.0001 4.32947 13.9023 4.65171 13.7192 4.92579C13.5361 5.19987 13.2758 5.41349 12.9712 5.53964C12.6667 5.66578 12.3316 5.69879 12.0083 5.63448C11.685 5.57017 11.388 5.41144 11.1549 5.17835C10.9218 4.94526 10.7631 4.64829 10.6988 4.32499C10.6345 4.00169 10.6675 3.66657 10.7936 3.36203C10.9198 3.05749 11.1334 2.79719 11.4075 2.61405C11.6815 2.43092 12.0038 2.33317 12.3334 2.33317C12.7754 2.33317 13.1994 2.50877 13.5119 2.82133C13.8245 3.13389 14.0001 3.55781 14.0001 3.99984Z" fill="#F5AE2E"/>
</g>
<defs>
<clipPath id="clip0_2066_1020">
<rect width="40" height="40" fill="white" transform="translate(0.666748 0.666504)"/>
</clipPath>
</defs>
</svg>
