<svg width="24" height="24" viewBox="0 0 24 24" fill="none" xmlns="http://www.w3.org/2000/svg">
<path d="M12 14C13.1046 14 14 13.1046 14 12C14 10.8954 13.1046 10 12 10C10.8954 10 10 10.8954 10 12C10 13.1046 10.8954 14 12 14Z" stroke="#F5AE2E" stroke-width="1.5" stroke-linecap="round" stroke-linejoin="round"/>
<path d="M3.99999 18.001C2.69897 16.2711 1.99688 14.1645 2 12C2 6.477 6.477 2 12 2C17.523 2 22 6.477 22 12C22 14.252 21.256 16.33 20 18.001" stroke="#F5AE2E" stroke-width="1.5" stroke-linecap="round" stroke-linejoin="round"/>
<path d="M7.52799 16.0002C6.75578 15.1369 6.24995 14.0685 6.07157 12.924C5.89319 11.7796 6.04988 10.608 6.52272 9.5506C6.99557 8.49324 7.76435 7.59535 8.73628 6.9653C9.7082 6.33526 10.8417 6 12 6C13.1583 6 14.2918 6.33526 15.2637 6.9653C16.2356 7.59535 17.0044 8.49324 17.4773 9.5506C17.9501 10.608 18.1068 11.7796 17.9284 12.924C17.75 14.0685 17.2442 15.1369 16.472 16.0002M12 14.0002V19.0002M13.262 19.0002H10.738C10.467 19.0002 10.331 19.0002 10.202 19.0182C9.93999 19.0552 9.69199 19.1482 9.47699 19.2882C9.338 19.3868 9.20663 19.4958 9.08399 19.6142C8.45399 20.1792 8.13899 20.4622 8.05599 20.6882C7.88399 21.1582 8.11999 21.6692 8.61199 21.8922C8.84899 22.0002 9.29499 22.0002 10.187 22.0002H13.814C14.704 22.0002 15.15 22.0002 15.388 21.8922C15.88 21.6692 16.116 21.1582 15.944 20.6882C15.861 20.4622 15.546 20.1792 14.916 19.6142C14.7931 19.4957 14.6618 19.3864 14.523 19.2872C14.3037 19.146 14.0563 19.0542 13.798 19.0182C13.668 19.0002 13.533 19.0002 13.262 19.0002Z" stroke="#F5AE2E" stroke-width="1.5" stroke-linecap="round" stroke-linejoin="round"/>
</svg>
