<svg width="41" height="41" viewBox="0 0 41 41" fill="none" xmlns="http://www.w3.org/2000/svg">
<path d="M31.1368 35.6665H28.1735C27.8283 35.6728 27.4855 35.6076 27.1668 35.4748C26.1385 35.0148 25.6168 34.4082 25.3718 34.0265C25.3057 33.9202 25.2734 33.7963 25.2794 33.6713C25.2853 33.5463 25.3292 33.426 25.4051 33.3265C26.5968 31.6798 29.3601 30.6848 31.1385 30.6848M31.1418 35.6682H34.1068C34.4501 35.6682 34.7951 35.6165 35.1118 35.4748C36.1418 35.0148 36.6635 34.4082 36.9068 34.0265C36.9732 33.9204 37.0057 33.7966 37.0001 33.6716C36.9944 33.5465 36.9508 33.4262 36.8751 33.3265C35.6835 31.6798 32.9185 30.6848 31.1418 30.6848M9.52514 19.8198H6.56014C6.21681 19.8198 5.87181 19.7698 5.55514 19.6282C4.52514 19.1682 4.00347 18.5615 3.76014 18.1815C3.69376 18.0754 3.66123 17.9516 3.66689 17.8266C3.67255 17.7015 3.71612 17.5812 3.79181 17.4815C4.98347 15.8332 7.74847 14.8382 9.52514 14.8382M9.53014 19.8215H12.4935C12.8385 19.8215 13.1835 19.7715 13.5001 19.6282C14.5285 19.1682 15.0501 18.5615 15.2951 18.1815C15.3613 18.0752 15.3935 17.9513 15.3876 17.8263C15.3816 17.7013 15.3378 17.581 15.2618 17.4815C14.0701 15.8332 11.3068 14.8382 9.52847 14.8382M19.4785 7.33317C24.1668 7.33317 28.1668 7.33317 29.6235 8.79817C31.0801 10.2632 31.0801 11.7865 31.0801 16.5032L27.7651 14.8365M20.3068 34.0098C15.6185 34.0098 11.6185 34.0098 10.1618 32.5432C8.70514 31.0798 8.70514 29.5548 8.70514 24.8398L12.0201 26.5065M9.53347 5.6665C8.16014 5.6665 7.04681 6.7865 7.04681 8.1665C7.04681 9.54984 8.16014 10.6682 9.53347 10.6682C10.9068 10.6682 12.0201 9.54817 12.0201 8.16817C12.0201 6.78317 10.9068 5.6665 9.53347 5.6665ZM31.0801 21.5048C29.7068 21.5048 28.5935 22.6248 28.5935 24.0048C28.5935 25.3882 29.7068 26.5048 31.0801 26.5048C32.4535 26.5048 33.5651 25.3882 33.5651 24.0048C33.5651 22.6248 32.4535 21.5048 31.0801 21.5048Z" stroke="#F5AE2E" stroke-width="3" stroke-linecap="round" stroke-linejoin="round"/>
</svg>
