<svg width="41" height="40" viewBox="0 0 41 40" fill="none" xmlns="http://www.w3.org/2000/svg">
<path d="M20.3334 13.3333C22.635 13.3333 24.5 11.4683 24.5 9.16667C24.5 6.865 22.635 5 20.3334 5C18.0317 5 16.1667 6.865 16.1667 9.16667C16.1667 11.4683 18.0317 13.3333 20.3334 13.3333ZM12.8334 17.5C12.8334 15.4308 17.83 14.1667 20.3334 14.1667C22.8367 14.1667 27.8334 15.4308 27.8334 17.5V20H12.8334V17.5ZM17 31.6667C16.9999 30.9275 17.2453 30.2093 17.6979 29.6249C18.1504 29.0405 18.7844 28.6231 19.5 28.4383V26.4708H9.50005V28.4383C10.2838 28.6431 10.9662 29.1261 11.4199 29.7972C11.8736 30.4683 12.0675 31.2816 11.9654 32.0852C11.8634 32.8888 11.4723 33.6278 10.8653 34.1641C10.2583 34.7005 9.47676 34.9976 8.66671 35C7.85483 35.0008 7.07056 34.7053 6.46111 34.1689C5.85166 33.6324 5.45894 32.892 5.35665 32.0866C5.25436 31.2812 5.44954 30.4662 5.90555 29.7944C6.36157 29.1227 7.04707 28.6405 7.83338 28.4383V26.4708C7.83338 26.0288 8.00898 25.6049 8.32154 25.2923C8.6341 24.9798 9.05802 24.8042 9.50005 24.8042H19.5V21.6667H21.1667V24.8042H31.1667C31.6087 24.8042 32.0327 24.9798 32.3452 25.2923C32.6578 25.6049 32.8334 26.0288 32.8334 26.4708V28.4383C33.6171 28.6431 34.2995 29.1261 34.7532 29.7972C35.2069 30.4683 35.4008 31.2816 35.2987 32.0852C35.1967 32.8888 34.8056 33.6278 34.1986 34.1641C33.5916 34.7005 32.8101 34.9976 32 35C31.1882 35.0008 30.4039 34.7053 29.7944 34.1689C29.185 33.6324 28.7923 32.892 28.69 32.0866C28.5877 31.2812 28.7829 30.4662 29.2389 29.7944C29.6949 29.1227 30.3804 28.6405 31.1667 28.4383V26.4708H21.1667V28.4383C21.9505 28.6431 22.6329 29.1261 23.0865 29.7972C23.5402 30.4683 23.7341 31.2816 23.6321 32.0852C23.53 32.8888 23.139 33.6278 22.5319 34.1641C21.9249 34.7005 21.1434 34.9976 20.3334 35C19.4493 35 18.6015 34.6488 17.9764 34.0237C17.3512 33.3986 17 32.5507 17 31.6667Z" fill="url(#paint0_linear_2066_1038)"/>
<path d="M20.3334 13.3333C22.635 13.3333 24.5 11.4683 24.5 9.16667C24.5 6.865 22.635 5 20.3334 5C18.0317 5 16.1667 6.865 16.1667 9.16667C16.1667 11.4683 18.0317 13.3333 20.3334 13.3333ZM12.8334 17.5C12.8334 15.4308 17.83 14.1667 20.3334 14.1667C22.8367 14.1667 27.8334 15.4308 27.8334 17.5V20H12.8334V17.5ZM17 31.6667C16.9999 30.9275 17.2453 30.2093 17.6979 29.6249C18.1504 29.0405 18.7844 28.6231 19.5 28.4383V26.4708H9.50005V28.4383C10.2838 28.6431 10.9662 29.1261 11.4199 29.7972C11.8736 30.4683 12.0675 31.2816 11.9654 32.0852C11.8634 32.8888 11.4723 33.6278 10.8653 34.1641C10.2583 34.7005 9.47676 34.9976 8.66671 35C7.85483 35.0008 7.07056 34.7053 6.46111 34.1689C5.85166 33.6324 5.45894 32.892 5.35665 32.0866C5.25436 31.2812 5.44954 30.4662 5.90555 29.7944C6.36157 29.1227 7.04707 28.6405 7.83338 28.4383V26.4708C7.83338 26.0288 8.00898 25.6049 8.32154 25.2923C8.6341 24.9798 9.05802 24.8042 9.50005 24.8042H19.5V21.6667H21.1667V24.8042H31.1667C31.6087 24.8042 32.0327 24.9798 32.3452 25.2923C32.6578 25.6049 32.8334 26.0288 32.8334 26.4708V28.4383C33.6171 28.6431 34.2995 29.1261 34.7532 29.7972C35.2069 30.4683 35.4008 31.2816 35.2987 32.0852C35.1967 32.8888 34.8056 33.6278 34.1986 34.1641C33.5916 34.7005 32.8101 34.9976 32 35C31.1882 35.0008 30.4039 34.7053 29.7944 34.1689C29.185 33.6324 28.7923 32.892 28.69 32.0866C28.5877 31.2812 28.7829 30.4662 29.2389 29.7944C29.6949 29.1227 30.3804 28.6405 31.1667 28.4383V26.4708H21.1667V28.4383C21.9505 28.6431 22.6329 29.1261 23.0865 29.7972C23.5402 30.4683 23.7341 31.2816 23.6321 32.0852C23.53 32.8888 23.139 33.6278 22.5319 34.1641C21.9249 34.7005 21.1434 34.9976 20.3334 35C19.4493 35 18.6015 34.6488 17.9764 34.0237C17.3512 33.3986 17 32.5507 17 31.6667Z" fill="#F5AE2E"/>
<defs>
<linearGradient id="paint0_linear_2066_1038" x1="32.6709" y1="7.67857" x2="45.3454" y2="11.6822" gradientUnits="userSpaceOnUse">
<stop offset="0.341346" stop-color="#28112B"/>
<stop offset="1" stop-color="#1491FF"/>
</linearGradient>
</defs>
</svg>
