<svg width="41" height="40" viewBox="0 0 41 40" fill="none" xmlns="http://www.w3.org/2000/svg">
<path d="M8.66687 26.6666L17.0002 21.6666M23.6669 18.3333L32.0002 13.3333M20.3335 8.33325V16.6666M20.3335 23.3333V31.6666M8.66687 13.3333L17.0002 18.3333M23.6669 21.6666L32.0002 26.6666M34.5002 14.9999V24.1666M22.8335 34.1666L32.0002 29.1666M7.83354 29.1666L17.8335 34.1666M6.16687 24.9999V14.9999M7.83354 10.8333L17.8335 5.83325M32.8335 10.8333L22.8335 5.83325" stroke="#F5AE2E" stroke-width="1.5" stroke-linecap="round" stroke-linejoin="round"/>
<path d="M20.3335 8.33325C21.7142 8.33325 22.8335 7.21396 22.8335 5.83325C22.8335 4.45254 21.7142 3.33325 20.3335 3.33325C18.9528 3.33325 17.8335 4.45254 17.8335 5.83325C17.8335 7.21396 18.9528 8.33325 20.3335 8.33325Z" stroke="#F5AE2E" stroke-width="1.5" stroke-linecap="round" stroke-linejoin="round"/>
<path d="M20.3335 36.6665C21.7142 36.6665 22.8335 35.5472 22.8335 34.1665C22.8335 32.7858 21.7142 31.6665 20.3335 31.6665C18.9528 31.6665 17.8335 32.7858 17.8335 34.1665C17.8335 35.5472 18.9528 36.6665 20.3335 36.6665Z" stroke="#F5AE2E" stroke-width="1.5" stroke-linecap="round" stroke-linejoin="round"/>
<path d="M6.16687 15C7.54758 15 8.66687 13.8807 8.66687 12.5C8.66687 11.1193 7.54758 10 6.16687 10C4.78616 10 3.66687 11.1193 3.66687 12.5C3.66687 13.8807 4.78616 15 6.16687 15Z" stroke="#F5AE2E" stroke-width="1.5" stroke-linecap="round" stroke-linejoin="round"/>
<path d="M34.5002 15C35.881 15 37.0002 13.8807 37.0002 12.5C37.0002 11.1193 35.881 10 34.5002 10C33.1195 10 32.0002 11.1193 32.0002 12.5C32.0002 13.8807 33.1195 15 34.5002 15Z" stroke="#F5AE2E" stroke-width="1.5" stroke-linecap="round" stroke-linejoin="round"/>
<path d="M34.5002 30C35.881 30 37.0002 28.8807 37.0002 27.5C37.0002 26.1193 35.881 25 34.5002 25C33.1195 25 32.0002 26.1193 32.0002 27.5C32.0002 28.8807 33.1195 30 34.5002 30Z" stroke="#F5AE2E" stroke-width="1.5" stroke-linecap="round" stroke-linejoin="round"/>
<path d="M6.16687 30C7.54758 30 8.66687 28.8807 8.66687 27.5C8.66687 26.1193 7.54758 25 6.16687 25C4.78616 25 3.66687 26.1193 3.66687 27.5C3.66687 28.8807 4.78616 30 6.16687 30Z" stroke="#F5AE2E" stroke-width="1.5" stroke-linecap="round" stroke-linejoin="round"/>
<path d="M20.3336 16.25L23.6669 18.125V21.875L20.3336 23.75L17.0002 21.875V18.125L20.3336 16.25Z" stroke="#F5AE2E" stroke-width="1.5" stroke-linecap="round" stroke-linejoin="round"/>
</svg>
